<?xml version="1.0" encoding="UTF-8" standalone="no"?>
<!-- Created with Inkscape (http://www.inkscape.org/) -->

<svg
   xmlns:dc="http://purl.org/dc/elements/1.1/"
   xmlns:cc="http://creativecommons.org/ns#"
   xmlns:rdf="http://www.w3.org/1999/02/22-rdf-syntax-ns#"
   xmlns:svg="http://www.w3.org/2000/svg"
   xmlns="http://www.w3.org/2000/svg"
   xmlns:xlink="http://www.w3.org/1999/xlink"
   xmlns:sodipodi="http://sodipodi.sourceforge.net/DTD/sodipodi-0.dtd"
   xmlns:inkscape="http://www.inkscape.org/namespaces/inkscape"
   width="319.87408"
   height="314.15237"
   id="svg2"
   version="1.1"
   inkscape:version="0.48.3.1 r9886"
   sodipodi:docname="BabySmix.svg"
   inkscape:export-filename="/home/rob/projects/BabySmix/BabySmix.png"
   inkscape:export-xdpi="18.048567"
   inkscape:export-ydpi="18.048567">
  <defs
     id="defs4">
    <linearGradient
       id="linearGradient3044">
      <stop
         style="stop-color:#ffffff;stop-opacity:0.91538459;"
         offset="0"
         id="stop3046" />
      <stop
         id="stop3879"
         offset="0.73972601"
         style="stop-color:#ffd4b8;stop-opacity:0.77692306;" />
      <stop
         style="stop-color:#ffffff;stop-opacity:0;"
         offset="1"
         id="stop3048" />
    </linearGradient>
    <radialGradient
       inkscape:collect="always"
       xlink:href="#linearGradient3044"
       id="radialGradient3050"
       cx="355.52844"
       cy="477.86508"
       fx="355.52844"
       fy="477.86508"
       r="148.48962"
       gradientTransform="matrix(0.43159666,-0.90288538,1.120824,0.53577554,-339.93909,547.41235)"
       gradientUnits="userSpaceOnUse" />
    <radialGradient
       inkscape:collect="always"
       xlink:href="#linearGradient3044"
       id="radialGradient3054"
       gradientUnits="userSpaceOnUse"
       gradientTransform="matrix(0.11230864,-0.24280322,0.19648595,0.09088459,273.26513,453.30046)"
       cx="619.15265"
       cy="474.23349"
       fx="619.15265"
       fy="474.23349"
       r="148.48962" />
    <radialGradient
       inkscape:collect="always"
       xlink:href="#linearGradient3044"
       id="radialGradient3058"
       gradientUnits="userSpaceOnUse"
       gradientTransform="matrix(0.12165017,-0.18675107,0.11495016,0.07487885,330.29706,438.08)"
       cx="465.92679"
       cy="742.66895"
       fx="465.92679"
       fy="742.66895"
       r="148.48962" />
    <radialGradient
       inkscape:collect="always"
       xlink:href="#linearGradient3044"
       id="radialGradient3062"
       gradientUnits="userSpaceOnUse"
       gradientTransform="matrix(0.02582165,-0.21152919,0.18149451,0.02215525,393.60987,437.92643)"
       cx="472.36081"
       cy="-228.91203"
       fx="472.36081"
       fy="-228.91203"
       r="148.48962" />
    <radialGradient
       inkscape:collect="always"
       xlink:href="#linearGradient3044"
       id="radialGradient3066"
       gradientUnits="userSpaceOnUse"
       gradientTransform="matrix(-0.03540399,-0.23193774,0.18074815,-0.02759022,410.66963,412.10428)"
       cx="286.39771"
       cy="-636.58289"
       fx="286.39771"
       fy="-636.58289"
       r="148.48962" />
    <radialGradient
       inkscape:collect="always"
       xlink:href="#linearGradient3044"
       id="radialGradient3070"
       gradientUnits="userSpaceOnUse"
       gradientTransform="matrix(-0.27350372,-0.23874059,0.12023796,-0.13774595,287.25973,284.98763)"
       cx="-228.63193"
       cy="-1139.8527"
       fx="-228.63193"
       fy="-1139.8527"
       r="148.48962" />
  </defs>
  <sodipodi:namedview
     id="base"
     pagecolor="#ffffff"
     bordercolor="#666666"
     borderopacity="1.0"
     inkscape:pageopacity="0"
     inkscape:pageshadow="2"
     inkscape:zoom="0.98994949"
     inkscape:cx="-106.65103"
     inkscape:cy="203.30316"
     inkscape:document-units="px"
     inkscape:current-layer="layer1"
     showgrid="false"
     inkscape:window-width="1855"
     inkscape:window-height="1056"
     inkscape:window-x="65"
     inkscape:window-y="24"
     inkscape:window-maximized="1"
     inkscape:snap-grids="true"
     inkscape:snap-to-guides="false"
     showborder="false"
     fit-margin-top="0"
     fit-margin-left="0"
     fit-margin-right="0"
     fit-margin-bottom="0"
     inkscape:showpageshadow="false">
    <sodipodi:guide
       position="0,0"
       orientation="0,319.87408"
       id="guide3881" />
    <sodipodi:guide
       position="319.87408,0"
       orientation="-314.15237,0"
       id="guide3883" />
    <sodipodi:guide
       position="319.87408,314.15237"
       orientation="0,-319.87408"
       id="guide3885" />
    <sodipodi:guide
       position="0,314.15237"
       orientation="314.15237,0"
       id="guide3887" />
  </sodipodi:namedview>
  <metadata
     id="metadata7">
    <rdf:RDF>
      <cc:Work
         rdf:about="">
        <dc:format>image/svg+xml</dc:format>
        <dc:type
           rdf:resource="http://purl.org/dc/dcmitype/StillImage" />
        <dc:title></dc:title>
      </cc:Work>
    </rdf:RDF>
  </metadata>
  <g
     inkscape:groupmode="layer"
     id="layer2"
     inkscape:label="Buttons"
     style="display:inline"
     sodipodi:insensitive="true"
     transform="translate(-183.17678,-295.75787)">
    <rect
       style="fill:#ff5555"
       id="rect3073"
       width="100"
       height="100"
       x="190.91884"
       y="297.7782"
       rx="15"
       ry="15" />
    <rect
       ry="15"
       rx="15"
       y="296.76804"
       x="295.9747"
       height="100"
       width="100"
       id="rect3075"
       style="fill:#d4ff2a" />
    <rect
       style="fill:#55ddff"
       id="rect3079"
       width="100"
       height="100"
       x="403.05087"
       y="295.75787"
       rx="15"
       ry="15" />
    <rect
       ry="15"
       rx="15"
       y="404.85437"
       x="190.91884"
       height="100"
       width="100"
       id="rect3087"
       style="fill:#00d455" />
    <rect
       style="fill:#d40055"
       id="rect3089"
       width="100"
       height="100"
       x="295.9747"
       y="403.84421"
       rx="15"
       ry="15" />
    <rect
       ry="15"
       rx="15"
       y="402.83405"
       x="403.05087"
       height="100"
       width="100"
       id="rect3091"
       style="fill:#ff6600" />
    <rect
       style="fill:#2a2aff"
       id="rect3093"
       width="100"
       height="100"
       x="189.90869"
       y="509.91025"
       rx="15"
       ry="15" />
    <rect
       ry="15"
       rx="15"
       y="508.90009"
       x="294.96454"
       height="100"
       width="100"
       id="rect3095"
       style="fill:#d4ff2a" />
    <rect
       style="fill:#cc00ff"
       id="rect3097"
       width="100"
       height="100"
       x="402.04071"
       y="507.88992"
       rx="15"
       ry="15" />
  </g>
  <g
     inkscape:label="Paw"
     inkscape:groupmode="layer"
     id="layer1"
     style="display:inline"
     transform="translate(-183.17678,-295.75787)">
    <path
       style="fill:none;stroke:#000000;stroke-width:10;stroke-linecap:butt;stroke-linejoin:miter;stroke-miterlimit:4;stroke-opacity:1;stroke-dasharray:none"
       d="m 288.57143,595.21933 c -4.76191,-2.85715 -9.18144,-6.38389 -44.00235,-29.74644 -26.23462,-30.43362 -31.28063,-30.2724 -40.94788,-49.17361 -8.6571,-14.35552 -19.76877,-31.18148 -13.71501,-41.18148 6.05376,-10 23.73915,-0.21866 41.05137,10.36735 17.31223,10.58601 33.21395,32.9316 47.27577,17.81966 14.06182,-15.11195 -1.09047,-45.22834 -1.09047,-56.65691 0,-1.64628 0.52068,-13.24436 -2.79565,-33.13186 -3.31633,-19.88749 -5.9609,-32.08916 -5.4429,-46.72221 0.518,-14.63304 0.0502,-17.67187 9.17712,-21.76605 9.12691,-4.09417 18.31017,-4.4698 24.24089,2.70167 5.93071,7.17148 1.88314,7.16888 8.35184,32.09128 6.4687,24.9224 8.99408,61.89365 17.73882,66.03493 6.21937,-2.92978 0.15845,-25.87443 4.89311,-60.58185 4.73466,-34.70741 6.22188,-41.28173 10.9566,-57.94099 3.47203,-5.29503 3.61535,-19.34294 24.90078,-23.58092 15.72958,2.58055 13.69367,13.67355 13.69367,22.89597 0,10.47619 -1.01015,18.93207 -4.58688,53.93567 -4.58688,32.98329 -10.78504,55.14936 -7.62673,57.40416 3.15831,2.25481 11.00894,-20.35905 13.34102,-27.88035 2.33207,-7.5213 3.98454,-7.96909 8.8726,-22.03091 4.88805,-14.06182 6.54051,-14.50961 12.83918,-29.96408 6.29866,-15.45447 10.70398,-42.00693 34.8691,-40.8663 24.16512,1.14063 13.54697,29.07335 11.02159,36.61645 -0.52265,1.56112 -2.50977,7.18344 -20.285,46.45018 -17.77523,39.26674 -25.43337,49.34669 -22.17722,50.69807 3.25615,1.35139 4.30908,1.77731 12.21457,-2.17544 7.90549,-3.95274 11.77775,-6.4612 17.82876,-18.2758 6.051,-11.8146 10.41332,-17.28124 21.18742,-28.76587 18.35023,-19.56585 22.03148,-18.00293 25.12368,-13.71722 3.0922,4.28572 3.0922,10.00001 -0.21389,18.04075 -3.30609,8.04075 -1.51031,15.87777 -32.26043,60.23514 -30.75011,44.35737 -32.40257,44.80516 -34.13231,55.40749 -1.72974,10.60234 -1.72974,19.17377 -1.72974,27.7452 0,2.02515 7.44043,19.93967 -14.68944,39.13877 -22.12987,19.19909 -40.46616,15.14694 -42.45342,15.14694 -10.47619,0 -20.95238,0 -31.42857,0 -5.71429,0 -11.42857,0 -17.14286,0 -1.28673,0 -7.7019,0.43477 -8.57143,0 -4.96701,-2.4835 -9.52381,-5.71428 -14.28571,-8.57142 z"
       id="path2985"
       inkscape:connector-curvature="0"
       sodipodi:nodetypes="ccccccscccccccccsccccccscccccccccscsssssc" />
    <path
       style="fill:url(#radialGradient3050);fill-opacity:1;stroke-width:10;stroke-miterlimit:4;stroke-dasharray:none"
       d="m 301.39647,601.56555 c -1.72823,-0.72282 -15.08184,-9.32854 -29.6747,-19.1238 -21.78369,-14.62202 -27.65958,-19.07802 -32.82995,-24.89664 -3.46362,-3.89787 -10.90058,-12.03325 -16.52658,-18.07861 -10.48031,-11.26149 -20.94285,-27.14905 -29.13296,-44.23894 -4.61702,-9.63411 -4.94843,-16.82461 -0.9593,-20.81374 2.31004,-2.31005 3.17538,-2.54319 7.52665,-2.02784 9.33977,1.10616 27.83091,11.21409 44.91653,24.55301 16.45532,12.84685 22.20447,14.77667 30.14978,10.12042 10.27756,-6.02305 12.43383,-19.83877 6.78524,-43.47464 -1.84211,-7.7081 -3.21419,-16.77808 -3.62098,-23.93614 -0.36024,-6.33888 -2.25832,-21.98032 -4.21797,-34.75875 -3.97911,-25.94687 -4.86399,-47.02144 -2.20918,-52.61446 1.91421,-4.03277 11.11459,-8.57246 17.66387,-8.71578 9.41722,-0.20609 14.55549,4.7843 16.34378,15.87338 2.43417,15.09426 14.55446,72.82447 16.37936,78.01663 1.11683,3.17759 2.96574,6.69751 4.10868,7.82204 l 2.07808,2.0446 1.95876,-2.38475 c 1.75774,-2.14001 1.95984,-4.05792 1.9692,-18.68782 0.013,-20.33262 1.28836,-35.20051 5.12447,-59.73964 6.23135,-39.86125 11.55883,-53.11009 23.61316,-58.72332 8.65446,-4.03004 16.02344,-2.53889 19.36247,3.91808 3.5568,6.87811 0.0448,51.6383 -7.69042,98.01517 -2.29588,13.76494 -3.88947,25.92465 -3.54132,27.02158 1.84191,5.80334 6.57577,-0.13117 12.10737,-15.17819 5.83924,-15.88388 15.97055,-41.35047 20.6961,-52.02286 2.70605,-6.11142 6.60006,-15.65736 8.65336,-21.2132 4.82696,-13.06078 6.79565,-16.8601 11.35917,-21.92169 4.76086,-5.28046 10.34666,-7.82737 17.22872,-7.85563 6.72908,-0.0276 11.86334,2.32718 14.01406,6.42749 2.2684,4.32468 1.96102,14.59882 -0.69031,23.07326 -2.72438,8.70794 -19.00575,45.58232 -33.32712,75.47996 -6.13728,12.81236 -11.1587,24.42099 -11.1587,25.79697 0,8.29234 20.02677,0.40543 27.54027,-10.84585 1.94723,-2.91594 5.75228,-9.13269 8.45567,-13.81502 3.49385,-6.05144 8.39836,-12.12909 16.96009,-21.01688 17.37074,-18.0323 20.37158,-19.82602 23.78953,-14.2199 2.85,4.67454 2.57642,8.19159 -1.56203,20.08103 -6.68848,19.21551 -12.95144,30.01215 -41.27088,71.14624 -9.56251,13.8896 -18.39541,26.92764 -19.62867,28.97341 -4.00587,6.64511 -5.48425,16.71687 -5.60742,38.20174 l -0.11294,19.69797 -3.45352,6.39061 c -5.78079,10.69713 -19.58919,21.82787 -32.95782,26.56679 -5.61228,1.98944 -8.19592,2.13287 -40.73088,2.26106 -26.49071,0.10438 -35.48452,-0.17515 -37.88072,-1.17735 l 0,0 z"
       id="path3042"
       inkscape:connector-curvature="0" />
    <path
       inkscape:connector-curvature="0"
       id="path3052"
       d="m 301.39647,601.56555 c -1.72823,-0.72282 -15.08184,-9.32854 -29.6747,-19.1238 -21.78369,-14.62202 -27.65958,-19.07802 -32.82995,-24.89664 -3.46362,-3.89787 -10.90058,-12.03325 -16.52658,-18.07861 -10.48031,-11.26149 -20.94285,-27.14905 -29.13296,-44.23894 -4.61702,-9.63411 -4.94843,-16.82461 -0.9593,-20.81374 2.31004,-2.31005 3.17538,-2.54319 7.52665,-2.02784 9.33977,1.10616 27.83091,11.21409 44.91653,24.55301 16.45532,12.84685 22.20447,14.77667 30.14978,10.12042 10.27756,-6.02305 12.43383,-19.83877 6.78524,-43.47464 -1.84211,-7.7081 -3.21419,-16.77808 -3.62098,-23.93614 -0.36024,-6.33888 -2.25832,-21.98032 -4.21797,-34.75875 -3.97911,-25.94687 -4.86399,-47.02144 -2.20918,-52.61446 1.91421,-4.03277 11.11459,-8.57246 17.66387,-8.71578 9.41722,-0.20609 14.55549,4.7843 16.34378,15.87338 2.43417,15.09426 14.55446,72.82447 16.37936,78.01663 1.11683,3.17759 2.96574,6.69751 4.10868,7.82204 l 2.07808,2.0446 1.95876,-2.38475 c 1.75774,-2.14001 1.95984,-4.05792 1.9692,-18.68782 0.013,-20.33262 1.28836,-35.20051 5.12447,-59.73964 6.23135,-39.86125 11.55883,-53.11009 23.61316,-58.72332 8.65446,-4.03004 16.02344,-2.53889 19.36247,3.91808 3.5568,6.87811 0.0448,51.6383 -7.69042,98.01517 -2.29588,13.76494 -3.88947,25.92465 -3.54132,27.02158 1.84191,5.80334 6.57577,-0.13117 12.10737,-15.17819 5.83924,-15.88388 15.97055,-41.35047 20.6961,-52.02286 2.70605,-6.11142 6.60006,-15.65736 8.65336,-21.2132 4.82696,-13.06078 6.79565,-16.8601 11.35917,-21.92169 4.76086,-5.28046 10.34666,-7.82737 17.22872,-7.85563 6.72908,-0.0276 11.86334,2.32718 14.01406,6.42749 2.2684,4.32468 1.96102,14.59882 -0.69031,23.07326 -2.72438,8.70794 -19.00575,45.58232 -33.32712,75.47996 -6.13728,12.81236 -11.1587,24.42099 -11.1587,25.79697 0,8.29234 20.02677,0.40543 27.54027,-10.84585 1.94723,-2.91594 5.75228,-9.13269 8.45567,-13.81502 3.49385,-6.05144 8.39836,-12.12909 16.96009,-21.01688 17.37074,-18.0323 20.37158,-19.82602 23.78953,-14.2199 2.85,4.67454 2.57642,8.19159 -1.56203,20.08103 -6.68848,19.21551 -12.95144,30.01215 -41.27088,71.14624 -9.56251,13.8896 -18.39541,26.92764 -19.62867,28.97341 -4.00587,6.64511 -5.48425,16.71687 -5.60742,38.20174 l -0.11294,19.69797 -3.45352,6.39061 c -5.78079,10.69713 -19.58919,21.82787 -32.95782,26.56679 -5.61228,1.98944 -8.19592,2.13287 -40.73088,2.26106 -26.49071,0.10438 -35.48452,-0.17515 -37.88072,-1.17735 l 0,0 z"
       style="fill:url(#radialGradient3054);fill-opacity:1;stroke-width:10;stroke-miterlimit:4;stroke-dasharray:none" />
    <path
       style="fill:url(#radialGradient3058);fill-opacity:1;stroke-width:10;stroke-miterlimit:4;stroke-dasharray:none"
       d="m 301.39647,601.56555 c -1.72823,-0.72282 -15.08184,-9.32854 -29.6747,-19.1238 -21.78369,-14.62202 -27.65958,-19.07802 -32.82995,-24.89664 -3.46362,-3.89787 -10.90058,-12.03325 -16.52658,-18.07861 -10.48031,-11.26149 -20.94285,-27.14905 -29.13296,-44.23894 -4.61702,-9.63411 -4.94843,-16.82461 -0.9593,-20.81374 2.31004,-2.31005 3.17538,-2.54319 7.52665,-2.02784 9.33977,1.10616 27.83091,11.21409 44.91653,24.55301 16.45532,12.84685 22.20447,14.77667 30.14978,10.12042 10.27756,-6.02305 12.43383,-19.83877 6.78524,-43.47464 -1.84211,-7.7081 -3.21419,-16.77808 -3.62098,-23.93614 -0.36024,-6.33888 -2.25832,-21.98032 -4.21797,-34.75875 -3.97911,-25.94687 -4.86399,-47.02144 -2.20918,-52.61446 1.91421,-4.03277 11.11459,-8.57246 17.66387,-8.71578 9.41722,-0.20609 14.55549,4.7843 16.34378,15.87338 2.43417,15.09426 14.55446,72.82447 16.37936,78.01663 1.11683,3.17759 2.96574,6.69751 4.10868,7.82204 l 2.07808,2.0446 1.95876,-2.38475 c 1.75774,-2.14001 1.95984,-4.05792 1.9692,-18.68782 0.013,-20.33262 1.28836,-35.20051 5.12447,-59.73964 6.23135,-39.86125 11.55883,-53.11009 23.61316,-58.72332 8.65446,-4.03004 16.02344,-2.53889 19.36247,3.91808 3.5568,6.87811 0.0448,51.6383 -7.69042,98.01517 -2.29588,13.76494 -3.88947,25.92465 -3.54132,27.02158 1.84191,5.80334 6.57577,-0.13117 12.10737,-15.17819 5.83924,-15.88388 15.97055,-41.35047 20.6961,-52.02286 2.70605,-6.11142 6.60006,-15.65736 8.65336,-21.2132 4.82696,-13.06078 6.79565,-16.8601 11.35917,-21.92169 4.76086,-5.28046 10.34666,-7.82737 17.22872,-7.85563 6.72908,-0.0276 11.86334,2.32718 14.01406,6.42749 2.2684,4.32468 1.96102,14.59882 -0.69031,23.07326 -2.72438,8.70794 -19.00575,45.58232 -33.32712,75.47996 -6.13728,12.81236 -11.1587,24.42099 -11.1587,25.79697 0,8.29234 20.02677,0.40543 27.54027,-10.84585 1.94723,-2.91594 5.75228,-9.13269 8.45567,-13.81502 3.49385,-6.05144 8.39836,-12.12909 16.96009,-21.01688 17.37074,-18.0323 20.37158,-19.82602 23.78953,-14.2199 2.85,4.67454 2.57642,8.19159 -1.56203,20.08103 -6.68848,19.21551 -12.95144,30.01215 -41.27088,71.14624 -9.56251,13.8896 -18.39541,26.92764 -19.62867,28.97341 -4.00587,6.64511 -5.48425,16.71687 -5.60742,38.20174 l -0.11294,19.69797 -3.45352,6.39061 c -5.78079,10.69713 -19.58919,21.82787 -32.95782,26.56679 -5.61228,1.98944 -8.19592,2.13287 -40.73088,2.26106 -26.49071,0.10438 -35.48452,-0.17515 -37.88072,-1.17735 l 0,0 z"
       id="path3056"
       inkscape:connector-curvature="0" />
    <path
       inkscape:connector-curvature="0"
       id="path3060"
       d="m 301.39647,601.56555 c -1.72823,-0.72282 -15.08184,-9.32854 -29.6747,-19.1238 -21.78369,-14.62202 -27.65958,-19.07802 -32.82995,-24.89664 -3.46362,-3.89787 -10.90058,-12.03325 -16.52658,-18.07861 -10.48031,-11.26149 -20.94285,-27.14905 -29.13296,-44.23894 -4.61702,-9.63411 -4.94843,-16.82461 -0.9593,-20.81374 2.31004,-2.31005 3.17538,-2.54319 7.52665,-2.02784 9.33977,1.10616 27.83091,11.21409 44.91653,24.55301 16.45532,12.84685 22.20447,14.77667 30.14978,10.12042 10.27756,-6.02305 12.43383,-19.83877 6.78524,-43.47464 -1.84211,-7.7081 -3.21419,-16.77808 -3.62098,-23.93614 -0.36024,-6.33888 -2.25832,-21.98032 -4.21797,-34.75875 -3.97911,-25.94687 -4.86399,-47.02144 -2.20918,-52.61446 1.91421,-4.03277 11.11459,-8.57246 17.66387,-8.71578 9.41722,-0.20609 14.55549,4.7843 16.34378,15.87338 2.43417,15.09426 14.55446,72.82447 16.37936,78.01663 1.11683,3.17759 2.96574,6.69751 4.10868,7.82204 l 2.07808,2.0446 1.95876,-2.38475 c 1.75774,-2.14001 1.95984,-4.05792 1.9692,-18.68782 0.013,-20.33262 1.28836,-35.20051 5.12447,-59.73964 6.23135,-39.86125 11.55883,-53.11009 23.61316,-58.72332 8.65446,-4.03004 16.02344,-2.53889 19.36247,3.91808 3.5568,6.87811 0.0448,51.6383 -7.69042,98.01517 -2.29588,13.76494 -3.88947,25.92465 -3.54132,27.02158 1.84191,5.80334 6.57577,-0.13117 12.10737,-15.17819 5.83924,-15.88388 15.97055,-41.35047 20.6961,-52.02286 2.70605,-6.11142 6.60006,-15.65736 8.65336,-21.2132 4.82696,-13.06078 6.79565,-16.8601 11.35917,-21.92169 4.76086,-5.28046 10.34666,-7.82737 17.22872,-7.85563 6.72908,-0.0276 11.86334,2.32718 14.01406,6.42749 2.2684,4.32468 1.96102,14.59882 -0.69031,23.07326 -2.72438,8.70794 -19.00575,45.58232 -33.32712,75.47996 -6.13728,12.81236 -11.1587,24.42099 -11.1587,25.79697 0,8.29234 20.02677,0.40543 27.54027,-10.84585 1.94723,-2.91594 5.75228,-9.13269 8.45567,-13.81502 3.49385,-6.05144 8.39836,-12.12909 16.96009,-21.01688 17.37074,-18.0323 20.37158,-19.82602 23.78953,-14.2199 2.85,4.67454 2.57642,8.19159 -1.56203,20.08103 -6.68848,19.21551 -12.95144,30.01215 -41.27088,71.14624 -9.56251,13.8896 -18.39541,26.92764 -19.62867,28.97341 -4.00587,6.64511 -5.48425,16.71687 -5.60742,38.20174 l -0.11294,19.69797 -3.45352,6.39061 c -5.78079,10.69713 -19.58919,21.82787 -32.95782,26.56679 -5.61228,1.98944 -8.19592,2.13287 -40.73088,2.26106 -26.49071,0.10438 -35.48452,-0.17515 -37.88072,-1.17735 l 0,0 z"
       style="fill:url(#radialGradient3062);fill-opacity:1;stroke-width:10;stroke-miterlimit:4;stroke-dasharray:none" />
    <path
       style="fill:url(#radialGradient3066);fill-opacity:1;stroke-width:10;stroke-miterlimit:4;stroke-dasharray:none"
       d="m 301.39647,601.56555 c -1.72823,-0.72282 -15.08184,-9.32854 -29.6747,-19.1238 -21.78369,-14.62202 -27.65958,-19.07802 -32.82995,-24.89664 -3.46362,-3.89787 -10.90058,-12.03325 -16.52658,-18.07861 -10.48031,-11.26149 -20.94285,-27.14905 -29.13296,-44.23894 -4.61702,-9.63411 -4.94843,-16.82461 -0.9593,-20.81374 2.31004,-2.31005 3.17538,-2.54319 7.52665,-2.02784 9.33977,1.10616 27.83091,11.21409 44.91653,24.55301 16.45532,12.84685 22.20447,14.77667 30.14978,10.12042 10.27756,-6.02305 12.43383,-19.83877 6.78524,-43.47464 -1.84211,-7.7081 -3.21419,-16.77808 -3.62098,-23.93614 -0.36024,-6.33888 -2.25832,-21.98032 -4.21797,-34.75875 -3.97911,-25.94687 -4.86399,-47.02144 -2.20918,-52.61446 1.91421,-4.03277 11.11459,-8.57246 17.66387,-8.71578 9.41722,-0.20609 14.55549,4.7843 16.34378,15.87338 2.43417,15.09426 14.55446,72.82447 16.37936,78.01663 1.11683,3.17759 2.96574,6.69751 4.10868,7.82204 l 2.07808,2.0446 1.95876,-2.38475 c 1.75774,-2.14001 1.95984,-4.05792 1.9692,-18.68782 0.013,-20.33262 1.28836,-35.20051 5.12447,-59.73964 6.23135,-39.86125 11.55883,-53.11009 23.61316,-58.72332 8.65446,-4.03004 16.02344,-2.53889 19.36247,3.91808 3.5568,6.87811 0.0448,51.6383 -7.69042,98.01517 -2.29588,13.76494 -3.88947,25.92465 -3.54132,27.02158 1.84191,5.80334 6.57577,-0.13117 12.10737,-15.17819 5.83924,-15.88388 15.97055,-41.35047 20.6961,-52.02286 2.70605,-6.11142 6.60006,-15.65736 8.65336,-21.2132 4.82696,-13.06078 6.79565,-16.8601 11.35917,-21.92169 4.76086,-5.28046 10.34666,-7.82737 17.22872,-7.85563 6.72908,-0.0276 11.86334,2.32718 14.01406,6.42749 2.2684,4.32468 1.96102,14.59882 -0.69031,23.07326 -2.72438,8.70794 -19.00575,45.58232 -33.32712,75.47996 -6.13728,12.81236 -11.1587,24.42099 -11.1587,25.79697 0,8.29234 20.02677,0.40543 27.54027,-10.84585 1.94723,-2.91594 5.75228,-9.13269 8.45567,-13.81502 3.49385,-6.05144 8.39836,-12.12909 16.96009,-21.01688 17.37074,-18.0323 20.37158,-19.82602 23.78953,-14.2199 2.85,4.67454 2.57642,8.19159 -1.56203,20.08103 -6.68848,19.21551 -12.95144,30.01215 -41.27088,71.14624 -9.56251,13.8896 -18.39541,26.92764 -19.62867,28.97341 -4.00587,6.64511 -5.48425,16.71687 -5.60742,38.20174 l -0.11294,19.69797 -3.45352,6.39061 c -5.78079,10.69713 -19.58919,21.82787 -32.95782,26.56679 -5.61228,1.98944 -8.19592,2.13287 -40.73088,2.26106 -26.49071,0.10438 -35.48452,-0.17515 -37.88072,-1.17735 l 0,0 z"
       id="path3064"
       inkscape:connector-curvature="0" />
    <path
       inkscape:connector-curvature="0"
       id="path3068"
       d="m 301.39647,601.56555 c -1.72823,-0.72282 -15.08184,-9.32854 -29.6747,-19.1238 -21.78369,-14.62202 -27.65958,-19.07802 -32.82995,-24.89664 -3.46362,-3.89787 -10.90058,-12.03325 -16.52658,-18.07861 -10.48031,-11.26149 -20.94285,-27.14905 -29.13296,-44.23894 -4.61702,-9.63411 -4.94843,-16.82461 -0.9593,-20.81374 2.31004,-2.31005 3.17538,-2.54319 7.52665,-2.02784 9.33977,1.10616 27.83091,11.21409 44.91653,24.55301 16.45532,12.84685 22.20447,14.77667 30.14978,10.12042 10.27756,-6.02305 12.43383,-19.83877 6.78524,-43.47464 -1.84211,-7.7081 -3.21419,-16.77808 -3.62098,-23.93614 -0.36024,-6.33888 -2.25832,-21.98032 -4.21797,-34.75875 -3.97911,-25.94687 -4.86399,-47.02144 -2.20918,-52.61446 1.91421,-4.03277 11.11459,-8.57246 17.66387,-8.71578 9.41722,-0.20609 14.55549,4.7843 16.34378,15.87338 2.43417,15.09426 14.55446,72.82447 16.37936,78.01663 1.11683,3.17759 2.96574,6.69751 4.10868,7.82204 l 2.07808,2.0446 1.95876,-2.38475 c 1.75774,-2.14001 1.95984,-4.05792 1.9692,-18.68782 0.013,-20.33262 1.28836,-35.20051 5.12447,-59.73964 6.23135,-39.86125 11.55883,-53.11009 23.61316,-58.72332 8.65446,-4.03004 16.02344,-2.53889 19.36247,3.91808 3.5568,6.87811 0.0448,51.6383 -7.69042,98.01517 -2.29588,13.76494 -3.88947,25.92465 -3.54132,27.02158 1.84191,5.80334 6.57577,-0.13117 12.10737,-15.17819 5.83924,-15.88388 15.97055,-41.35047 20.6961,-52.02286 2.70605,-6.11142 6.60006,-15.65736 8.65336,-21.2132 4.82696,-13.06078 6.79565,-16.8601 11.35917,-21.92169 4.76086,-5.28046 10.34666,-7.82737 17.22872,-7.85563 6.72908,-0.0276 11.86334,2.32718 14.01406,6.42749 2.2684,4.32468 1.96102,14.59882 -0.69031,23.07326 -2.72438,8.70794 -19.00575,45.58232 -33.32712,75.47996 -6.13728,12.81236 -11.1587,24.42099 -11.1587,25.79697 0,8.29234 20.02677,0.40543 27.54027,-10.84585 1.94723,-2.91594 5.75228,-9.13269 8.45567,-13.81502 3.49385,-6.05144 8.39836,-12.12909 16.96009,-21.01688 17.37074,-18.0323 20.37158,-19.82602 23.78953,-14.2199 2.85,4.67454 2.57642,8.19159 -1.56203,20.08103 -6.68848,19.21551 -12.95144,30.01215 -41.27088,71.14624 -9.56251,13.8896 -18.39541,26.92764 -19.62867,28.97341 -4.00587,6.64511 -5.48425,16.71687 -5.60742,38.20174 l -0.11294,19.69797 -3.45352,6.39061 c -5.78079,10.69713 -19.58919,21.82787 -32.95782,26.56679 -5.61228,1.98944 -8.19592,2.13287 -40.73088,2.26106 -26.49071,0.10438 -35.48452,-0.17515 -37.88072,-1.17735 l 0,0 z"
       style="fill:url(#radialGradient3070);fill-opacity:1;stroke-width:10;stroke-miterlimit:4;stroke-dasharray:none" />
  </g>
</svg>
